<svg width="36" height="36" viewBox="0 0 36 36" fill="none" xmlns="http://www.w3.org/2000/svg">
<path d="M29.7 29.6998C29.3964 29.6998 29.15 29.4534 29.15 29.1498V14.8498C29.15 14.5462 29.3964 14.2998 29.7 14.2998C30.0036 14.2998 30.25 14.5462 30.25 14.8498V29.1498C30.25 29.4534 30.0036 29.6998 29.7 29.6998Z" fill="#DF9130"/>
<path d="M5.50001 29.6998C5.19641 29.6998 4.95001 29.4534 4.95001 29.1498V14.8498C4.95001 14.5462 5.19641 14.2998 5.50001 14.2998C5.80361 14.2998 6.05001 14.5462 6.05001 14.8498V29.1498C6.05001 29.4534 5.80361 29.6998 5.50001 29.6998Z" fill="#DF9130"/>
<path d="M17.6 15.8755C17.4911 15.8755 17.3833 15.8436 17.2898 15.7798L3.90831 6.62343C3.65751 6.45183 3.59371 6.10973 3.76531 5.85893C3.93691 5.60813 4.27791 5.54323 4.52981 5.71593L17.6 14.6589L27.4538 7.91703C27.7057 7.74543 28.0478 7.81033 28.2183 8.06003C28.3899 8.31083 28.3261 8.65293 28.0753 8.82453L17.9113 15.7787C17.8167 15.8436 17.7089 15.8755 17.6 15.8755Z" fill="#DF9130"/>
<path d="M31.35 29.7H3.85001C2.33421 29.7 1.10001 28.4658 1.10001 26.95V8.25C1.10001 7.9464 1.34641 7.7 1.65001 7.7C1.95361 7.7 2.20001 7.9464 2.20001 8.25V26.95C2.20001 27.8597 2.94031 28.6 3.85001 28.6H31.35C32.2597 28.6 33 27.8597 33 26.95V8.25C33 7.3403 32.2597 6.6 31.35 6.6C31.0464 6.6 30.8 6.3536 30.8 6.05C30.8 5.7464 31.0464 5.5 31.35 5.5C32.8658 5.5 34.1 6.7342 34.1 8.25V26.95C34.1 28.4658 32.8658 29.7 31.35 29.7Z" fill="#DF9130"/>
<path d="M17.6 20.9C17.4911 20.9 17.3822 20.8681 17.2876 20.8032L2.27261 10.4478C1.53781 9.9418 1.10001 9.1058 1.10001 8.2137C1.10001 6.7177 2.31771 5.5 3.81371 5.5H31.3852C32.8823 5.5 34.1 6.7177 34.1 8.2137C34.1 9.1058 33.6622 9.9407 32.9274 10.4478L17.9124 20.8032C17.8178 20.8681 17.7089 20.9 17.6 20.9ZM3.81371 6.6C2.92381 6.6 2.20001 7.3238 2.20001 8.2137C2.20001 8.745 2.46071 9.2411 2.89741 9.5425L17.6 19.6823L32.3026 9.5425C32.7393 9.2411 33 8.745 33 8.2137C33 7.3238 32.2762 6.6 31.3863 6.6H3.81371Z" fill="#DF9130"/>
</svg>
