<svg width="36" height="36" viewBox="0 0 36 36" fill="none" xmlns="http://www.w3.org/2000/svg">
<path d="M17.7107 34.1001C8.62139 34.1001 1.49999 26.8522 1.49999 17.6001C1.49999 13.6082 2.86069 9.778 5.33349 6.8157C5.52929 6.5825 5.87469 6.5528 6.10789 6.7464C6.34109 6.9411 6.37299 7.2876 6.17829 7.5208C3.87049 10.2851 2.59999 13.8645 2.59999 17.6001C2.59999 26.2362 9.23739 33.0001 17.7107 33.0001C26.3622 33.0001 33.4 26.0921 33.4 17.6001C33.4 9.1081 26.3622 2.2001 17.7107 2.2001C15.0267 2.2001 12.4164 2.8821 10.1669 4.1713C9.90619 4.3176 9.56739 4.2307 9.41669 3.9667C9.26599 3.7027 9.35729 3.3672 9.62129 3.2154C12.0369 1.8316 14.8342 1.1001 17.7107 1.1001C26.9683 1.1001 34.5 8.502 34.5 17.6001C34.5 26.6982 26.9683 34.1001 17.7107 34.1001Z" fill="#DF9130"/>
<path d="M8.69728 5.00703C8.69728 5.30953 8.44978 5.55703 8.14728 5.55703C7.84478 5.55703 7.59728 5.30953 7.59728 5.00703C7.59728 4.70453 7.84478 4.45703 8.14728 4.45703C8.44978 4.45703 8.69728 4.70343 8.69728 5.00703Z" fill="#DF9130"/>
<path d="M21.905 26.4197C21.7829 26.4197 21.6586 26.379 21.5574 26.2954L15.2181 21.1023C15.0938 21.0011 15.0201 20.8504 15.0157 20.6898C15.0124 20.5292 15.0784 20.3763 15.1972 20.2685L19.9019 16.0225C20.1274 15.8168 20.475 15.8366 20.6785 16.0621C20.8831 16.2876 20.8644 16.6352 20.6389 16.8387L16.4083 20.6557L22.2526 25.444C22.488 25.6365 22.5221 25.983 22.3296 26.2184C22.2218 26.3504 22.0634 26.4197 21.905 26.4197Z" fill="#DF9130"/>
<path d="M22.5727 26.6243C22.2812 26.6243 21.9677 26.533 21.6388 26.3515L18.0242 23.4464L16.1718 25.1547C15.9144 25.4066 15.5998 25.7124 14.9739 25.7124C14.2039 25.7124 14.0246 25.3065 13.9069 24.8896C13.886 24.8181 13.8629 24.7345 13.8288 24.6388L12.5022 20.2729L8.70058 19.0871C7.80518 18.8121 7.68528 18.2632 7.67538 18.041C7.65998 17.6714 7.85248 17.1445 8.85678 16.7419L25.1896 10.44C25.6571 10.2574 26.206 10.4048 26.5228 10.7953C26.7461 11.0692 26.8319 11.4256 26.7593 11.7732L23.9378 25.2757C23.6848 26.4923 22.8983 26.6243 22.5727 26.6243ZM18 22.1704C18.1221 22.1704 18.2442 22.2111 18.3443 22.2925L22.2493 25.4407C22.7542 25.6816 22.7993 25.3472 22.862 25.0513L25.6835 11.5499L25.6142 11.4608L9.26158 17.766C9.06908 17.843 8.94258 17.9189 8.86558 17.975C8.90628 17.9948 8.96018 18.0157 9.02728 18.0366L13.1094 19.3104C13.2821 19.3654 13.4185 19.5018 13.4713 19.6756L14.8727 24.2912C14.909 24.388 14.9398 24.498 14.9662 24.5904C14.9684 24.597 14.9706 24.6047 14.9717 24.6113C15.118 24.6102 15.195 24.5706 15.3985 24.3715L17.6271 22.3145C17.7327 22.2199 17.8658 22.1704 18 22.1704Z" fill="#DF9130"/>
<path d="M22.4473 14.9069C22.4473 15.2094 22.1998 15.4569 21.8973 15.4569C21.5948 15.4569 21.3473 15.2094 21.3473 14.9069C21.3473 14.6044 21.5948 14.3569 21.8973 14.3569C22.1998 14.3569 22.4473 14.6033 22.4473 14.9069Z" fill="#DF9130"/>
</svg>
