<svg width="38" height="38" viewBox="0 0 38 38" fill="none" xmlns="http://www.w3.org/2000/svg">
<path d="M18.6713 37.75C8.3425 37.75 0.25 29.5138 0.25 19C0.25 14.4637 1.79625 10.1112 4.60625 6.745C4.82875 6.48 5.22125 6.44625 5.48625 6.66625C5.75125 6.8875 5.7875 7.28125 5.56625 7.54625C2.94375 10.6875 1.5 14.755 1.5 19C1.5 28.8137 9.0425 36.5 18.6713 36.5C28.5025 36.5 36.5 28.65 36.5 19C36.5 9.35 28.5025 1.5 18.6713 1.5C15.6213 1.5 12.655 2.275 10.0987 3.74C9.8025 3.90625 9.4175 3.8075 9.24625 3.5075C9.075 3.2075 9.17875 2.82625 9.47875 2.65375C12.2238 1.08125 15.4025 0.25 18.6713 0.25C29.1913 0.25 37.75 8.66125 37.75 19C37.75 29.3387 29.1913 37.75 18.6713 37.75Z" fill="#E0E0E0" fill-opacity="0.5"/>
<path d="M8.42877 4.68994C8.42877 5.03369 8.14752 5.31494 7.80377 5.31494C7.46002 5.31494 7.17877 5.03369 7.17877 4.68994C7.17877 4.34619 7.46002 4.06494 7.80377 4.06494C8.14752 4.06494 8.42877 4.34494 8.42877 4.68994Z" fill="#E0E0E0" fill-opacity="0.5"/>
<path d="M23.4375 29.0225C23.2987 29.0225 23.1575 28.9763 23.0425 28.8813L15.8387 22.98C15.6975 22.865 15.6137 22.6938 15.6087 22.5113C15.605 22.3288 15.68 22.155 15.815 22.0325L21.1612 17.2075C21.4175 16.9738 21.8125 16.9963 22.0437 17.2525C22.2762 17.5088 22.255 17.9038 21.9987 18.135L17.1912 22.4725L23.8325 27.9138C24.1 28.1325 24.1387 28.5263 23.92 28.7938C23.7975 28.9438 23.6175 29.0225 23.4375 29.0225Z" fill="#E0E0E0" fill-opacity="0.5"/>
<path d="M24.1962 29.255C23.865 29.255 23.5087 29.1512 23.135 28.945L19.0275 25.6437L16.9225 27.585C16.63 27.8712 16.2725 28.2187 15.5612 28.2187C14.6862 28.2187 14.4825 27.7575 14.3487 27.2837C14.325 27.2025 14.2987 27.1075 14.26 26.9987L12.7525 22.0375L8.43248 20.69C7.41498 20.3775 7.27873 19.7537 7.26748 19.5012C7.24998 19.0812 7.46873 18.4825 8.60998 18.025L27.17 10.8637C27.7012 10.6562 28.325 10.8237 28.685 11.2675C28.9387 11.5787 29.0362 11.9837 28.9537 12.3787L25.7475 27.7225C25.46 29.105 24.5662 29.255 24.1962 29.255ZM19 24.1937C19.1387 24.1937 19.2775 24.24 19.3912 24.3325L23.8287 27.91C24.4025 28.1837 24.4537 27.8037 24.525 27.4675L27.7312 12.125L27.6525 12.0237L9.06998 19.1887C8.85123 19.2762 8.70748 19.3625 8.61998 19.4262C8.66623 19.4487 8.72748 19.4725 8.80373 19.4962L13.4425 20.9437C13.6387 21.0062 13.7937 21.1612 13.8537 21.3587L15.4462 26.6037C15.4875 26.7137 15.5225 26.8387 15.5525 26.9437C15.555 26.9512 15.5575 26.96 15.5587 26.9675C15.725 26.9662 15.8125 26.9212 16.0437 26.695L18.5762 24.3575C18.6962 24.25 18.8475 24.1937 19 24.1937Z" fill="#E0E0E0" fill-opacity="0.5"/>
<path d="M24.0538 15.9399C24.0538 16.2837 23.7725 16.5649 23.4288 16.5649C23.085 16.5649 22.8038 16.2837 22.8038 15.9399C22.8038 15.5962 23.085 15.3149 23.4288 15.3149C23.7725 15.3149 24.0538 15.5949 24.0538 15.9399Z" fill="#E0E0E0" fill-opacity="0.5"/>
</svg>
