<svg width="36" height="36" viewBox="0 0 36 36" fill="none" xmlns="http://www.w3.org/2000/svg">
<path d="M17.8044 34.1001C14.6496 34.1001 11.5938 33.208 8.9494 31.5184L3.0666 33.3983C2.8697 33.461 2.653 33.4082 2.5067 33.2608C2.3615 33.1134 2.3109 32.8956 2.378 32.6998L4.2755 27.0392C2.3285 24.2672 1.3 21.0101 1.3 17.6001C1.3 13.1165 3.0732 8.92 6.2929 5.7839C6.5096 5.5727 6.8583 5.5771 7.0706 5.7938C7.2818 6.0116 7.2774 6.3603 7.0596 6.5715C4.0555 9.4997 2.4 13.4157 2.4 17.6001C2.4 20.8715 3.4142 23.9922 5.3315 26.6245C5.436 26.7686 5.4646 26.9545 5.4074 27.1239L3.7662 32.0211L8.8625 30.392C9.0209 30.3403 9.1947 30.3656 9.3344 30.4569C11.8479 32.1201 14.7772 33.0001 17.8044 33.0001C26.2942 33.0001 33.2 26.0921 33.2 17.6001C33.2 9.1092 26.2942 2.2001 17.8044 2.2001C17.8033 2.2001 17.8022 2.2001 17.8011 2.2001C15.4174 2.2001 13.1393 2.7292 11.0207 3.772C10.7479 3.9051 10.419 3.794 10.2848 3.5223C10.1506 3.2506 10.2617 2.9195 10.5356 2.7853C12.806 1.6677 15.2502 1.1001 17.7956 1.1001C26.8992 1.1001 34.3 8.502 34.3 17.6001C34.3 26.6982 26.8992 34.1001 17.8044 34.1001Z" fill="#DF9130"/>
<path d="M22.8622 26.9424C21.7501 26.9424 20.198 26.5134 17.9793 25.5938C15.083 24.3948 12.212 21.8824 9.8943 18.5219L9.8118 18.4042C9.0462 17.3581 7.8065 15.3539 7.8065 13.2617C7.8065 10.8098 9.033 9.56571 9.5577 9.03441C10.0516 8.52731 10.7897 8.25781 11.6191 8.25781C11.8281 8.25781 12.0151 8.26771 12.1856 8.27761C12.8841 8.30511 13.2889 8.48111 13.6739 9.40181L14.0732 10.3698C14.4956 11.3939 15.0159 12.6578 15.0973 12.8283C15.1875 13.0142 15.4614 13.5851 15.1567 14.1791C14.9939 14.5267 14.8344 14.7104 14.6155 14.9634C14.4615 15.1405 14.3592 15.2505 14.2547 15.3605C14.1337 15.4903 14.0105 15.6179 13.8873 15.773C13.675 16.0216 13.675 16.0216 13.7465 16.1459C14.1535 16.8334 15.0192 18.1534 16.2248 19.2259C17.789 20.6174 19.0529 21.1289 19.6601 21.3753L19.8108 21.4369C19.9703 21.5029 20.1716 21.5502 20.3223 21.3907C20.5951 21.097 20.9405 20.6141 21.3057 20.1026L21.5246 19.7957C21.9085 19.2534 22.3815 19.139 22.7104 19.139C22.9029 19.139 23.1031 19.1775 23.3077 19.2545C23.8192 19.4327 26.5109 20.7736 26.5384 20.7868L26.7969 20.9133C27.1819 21.0981 27.4855 21.2444 27.6593 21.5502C27.9112 21.988 27.8122 23.1364 27.4294 24.2199C26.9707 25.5168 25.2657 26.5299 23.8951 26.8247C23.6223 26.8819 23.2978 26.9424 22.8622 26.9424ZM11.618 9.35781C11.0988 9.35781 10.6258 9.51401 10.3816 9.76371C9.8745 10.2785 8.9054 11.2608 8.9054 13.2617C8.9054 14.5608 9.5489 16.1855 10.6709 17.7178L10.7985 17.8993C12.9963 21.0871 15.6957 23.4598 18.3984 24.5785C20.4807 25.442 21.8986 25.8435 22.8611 25.8435C23.1911 25.8435 23.4364 25.7973 23.6608 25.75C24.7311 25.519 26.0786 24.7281 26.3877 23.8536C26.7221 22.9109 26.7155 22.186 26.6759 22.0419C26.6737 22.076 26.4757 21.9825 26.3162 21.9055L26.0423 21.7713C25.2712 21.3852 23.278 20.4117 22.9293 20.2896C22.8369 20.2544 22.7665 20.2401 22.7071 20.2401C22.6576 20.2401 22.5553 20.2401 22.4167 20.4359L22.1967 20.7439C21.8106 21.2851 21.4465 21.7955 21.1231 22.1431C20.7084 22.5864 19.9967 22.7096 19.384 22.4544L19.2443 22.3972C18.6316 22.1497 17.1961 21.5689 15.49 20.0509C14.1744 18.8783 13.2361 17.4516 12.7939 16.7047C12.3286 15.9028 12.8005 15.3506 13.0271 15.0855C13.1712 14.9062 13.312 14.7577 13.4528 14.6081C13.5452 14.5102 13.6376 14.4123 13.7322 14.3023C13.9797 14.0174 14.0611 13.9228 14.1678 13.6951C14.1997 13.6324 14.2173 13.5433 14.1029 13.3057C14.0193 13.1297 13.4847 11.8383 13.0546 10.7911L12.6564 9.82641C12.4749 9.39081 12.4749 9.39081 12.1295 9.37761C11.9711 9.36661 11.8039 9.35781 11.618 9.35781Z" fill="#DF9130"/>
<path d="M8.44999 4.9501C8.75375 4.9501 8.99999 4.70385 8.99999 4.4001C8.99999 4.09634 8.75375 3.8501 8.44999 3.8501C8.14624 3.8501 7.89999 4.09634 7.89999 4.4001C7.89999 4.70385 8.14624 4.9501 8.44999 4.9501Z" fill="#DF9130"/>
</svg>
