<svg width="38" height="38" viewBox="0 0 38 38" fill="none" xmlns="http://www.w3.org/2000/svg">
<path d="M19.005 37.75C15.42 37.75 11.9475 36.7362 8.9425 34.8162L2.2575 36.9525C2.03375 37.0238 1.7875 36.9637 1.62125 36.7962C1.45625 36.6287 1.39875 36.3812 1.475 36.1587L3.63125 29.7262C1.41875 26.5763 0.25 22.875 0.25 19C0.25 13.905 2.265 9.13625 5.92375 5.5725C6.17 5.3325 6.56625 5.3375 6.8075 5.58375C7.0475 5.83125 7.0425 6.2275 6.795 6.4675C3.38125 9.795 1.5 14.245 1.5 19C1.5 22.7175 2.6525 26.2638 4.83125 29.255C4.95 29.4188 4.9825 29.63 4.9175 29.8225L3.0525 35.3875L8.84375 33.5363C9.02375 33.4775 9.22125 33.5062 9.38 33.61C12.2362 35.5 15.565 36.5 19.005 36.5C28.6525 36.5 36.5 28.65 36.5 19C36.5 9.35125 28.6525 1.5 19.005 1.5C19.0037 1.5 19.0025 1.5 19.0012 1.5C16.2925 1.5 13.7037 2.10125 11.2962 3.28625C10.9862 3.4375 10.6125 3.31125 10.46 3.0025C10.3075 2.69375 10.4338 2.3175 10.745 2.165C13.325 0.895 16.1025 0.25 18.995 0.25C29.34 0.25 37.75 8.66125 37.75 19C37.75 29.3387 29.34 37.75 19.005 37.75Z" fill="#E0E0E0" fill-opacity="0.5"/>
<path d="M24.7525 29.6163C23.4887 29.6163 21.725 29.1288 19.2037 28.0838C15.9125 26.7213 12.65 23.8663 10.0162 20.0475L9.92249 19.9138C9.05249 18.725 7.64374 16.4475 7.64374 14.07C7.64374 11.2838 9.03749 9.87004 9.63374 9.26629C10.195 8.69004 11.0337 8.38379 11.9762 8.38379C12.2137 8.38379 12.4262 8.39504 12.62 8.40629C13.4137 8.43754 13.8737 8.63754 14.3112 9.68379L14.765 10.7838C15.245 11.9475 15.8362 13.3838 15.9287 13.5775C16.0312 13.7888 16.3425 14.4375 15.9962 15.1125C15.8112 15.5075 15.63 15.7163 15.3812 16.0038C15.2062 16.205 15.09 16.33 14.9712 16.455C14.8337 16.6025 14.6937 16.7475 14.5537 16.9238C14.3125 17.2063 14.3125 17.2063 14.3937 17.3475C14.8562 18.1288 15.84 19.6288 17.21 20.8475C18.9875 22.4288 20.4237 23.01 21.1137 23.29L21.285 23.36C21.4662 23.435 21.695 23.4888 21.8662 23.3075C22.1762 22.9738 22.5687 22.425 22.9837 21.8438L23.2325 21.495C23.6687 20.8788 24.2062 20.7488 24.58 20.7488C24.7987 20.7488 25.0262 20.7925 25.2587 20.88C25.84 21.0825 28.8987 22.6063 28.93 22.6213L29.2237 22.765C29.6612 22.975 30.0062 23.1413 30.2037 23.4888C30.49 23.9863 30.3775 25.2913 29.9425 26.5225C29.4212 27.9963 27.4837 29.1475 25.9262 29.4825C25.6162 29.5475 25.2475 29.6163 24.7525 29.6163ZM11.975 9.63379C11.385 9.63379 10.8475 9.81129 10.57 10.095C9.99374 10.68 8.89249 11.7963 8.89249 14.07C8.89249 15.5463 9.62374 17.3925 10.8987 19.1338L11.0437 19.34C13.5412 22.9625 16.6087 25.6588 19.68 26.93C22.0462 27.9113 23.6575 28.3675 24.7512 28.3675C25.1262 28.3675 25.405 28.315 25.66 28.2613C26.8762 27.9988 28.4075 27.1 28.7587 26.1063C29.1387 25.035 29.1312 24.2113 29.0862 24.0475C29.0837 24.0863 28.8587 23.98 28.6775 23.8925L28.3662 23.74C27.49 23.3013 25.225 22.195 24.8287 22.0563C24.7237 22.0163 24.6437 22 24.5762 22C24.52 22 24.4037 22 24.2462 22.2225L23.9962 22.5725C23.5575 23.1875 23.1437 23.7675 22.7762 24.1625C22.305 24.6663 21.4962 24.8063 20.8 24.5163L20.6412 24.4513C19.945 24.17 18.3137 23.51 16.375 21.785C14.88 20.4525 13.8137 18.8313 13.3112 17.9825C12.7825 17.0713 13.3187 16.4438 13.5762 16.1425C13.74 15.9388 13.9 15.77 14.06 15.6C14.165 15.4888 14.27 15.3775 14.3775 15.2525C14.6587 14.9288 14.7512 14.8213 14.8725 14.5625C14.9087 14.4913 14.9287 14.39 14.7987 14.12C14.7037 13.92 14.0962 12.4525 13.6075 11.2625L13.155 10.1663C12.9487 9.67129 12.9487 9.67129 12.5562 9.65629C12.3762 9.64379 12.1862 9.63379 11.975 9.63379Z" fill="#E0E0E0" fill-opacity="0.5"/>
<path d="M8.375 4.625C8.72018 4.625 9 4.34518 9 4C9 3.65482 8.72018 3.375 8.375 3.375C8.02982 3.375 7.75 3.65482 7.75 4C7.75 4.34518 8.02982 4.625 8.375 4.625Z" fill="#E0E0E0" fill-opacity="0.5"/>
</svg>
